<svg xmlns="http://www.w3.org/2000/svg" xmlns:xlink="http://www.w3.org/1999/xlink" width="800" zoomAndPan="magnify" viewBox="0 0 600 899.99999" height="1200" preserveAspectRatio="xMidYMid meet" version="1.0"><defs><g/></defs><rect x="-60" width="720" fill="#ffffff" y="-89.999999" height="1079.999988" fill-opacity="1"/><rect x="-60" width="720" fill="#ffffff" y="-89.999999" height="1079.999988" fill-opacity="1"/><g fill="#000000" fill-opacity="1"><g transform="translate(300.6415, 479.020982)"><g/></g></g><g fill="#000000" fill-opacity="1"><g transform="translate(322.789937, 479.020982)"><g><path d="M 81.53125 7.234375 C 81.882812 7.546875 82.039062 7.882812 82 8.25 C 81.957031 8.613281 81.851562 8.941406 81.6875 9.234375 C 81.6875 9.285156 81.6875 9.3125 81.6875 9.3125 C 80.4375 12.257812 78.554688 14.484375 76.046875 15.984375 C 73.535156 17.492188 70.507812 18.125 66.96875 17.875 C 63.570312 17.539062 60.90625 16.351562 58.96875 14.3125 C 57.039062 12.269531 55.929688 9.53125 55.640625 6.09375 C 55.503906 4.414062 55.566406 2.742188 55.828125 1.078125 C 56.085938 -0.578125 56.414062 -2.234375 56.8125 -3.890625 C 57.0625 -4.929688 57.3125 -5.96875 57.5625 -7 C 58.03125 -8.71875 58.441406 -10.457031 58.796875 -12.21875 C 59.304688 -14.96875 59.015625 -16.878906 57.921875 -17.953125 C 56.828125 -19.035156 55.28125 -19.609375 53.28125 -19.671875 C 51.28125 -19.742188 49.253906 -19.640625 47.203125 -19.359375 C 46.023438 -19.242188 44.945312 -19.164062 43.96875 -19.125 C 43.582031 -19.125 43.28125 -19.015625 43.0625 -18.796875 C 42.851562 -18.585938 42.660156 -18.347656 42.484375 -18.078125 C 41.441406 -16.242188 40.4375 -14.378906 39.46875 -12.484375 C 30.34375 4.703125 20.457031 21.441406 9.8125 37.734375 C 8.175781 40.210938 6.476562 42.664062 4.71875 45.09375 C 4.320312 45.675781 3.878906 46.195312 3.390625 46.65625 C 2.910156 47.113281 2.316406 47.453125 1.609375 47.671875 C 0.316406 48.035156 -0.703125 47.945312 -1.453125 47.40625 C -2.203125 46.875 -2.546875 45.925781 -2.484375 44.5625 C -2.410156 42.976562 -2.175781 41.382812 -1.78125 39.78125 C 0.539062 30.070312 3.535156 21.757812 7.203125 14.84375 C 10.878906 7.9375 15.3125 1.691406 20.5 -3.890625 C 25.695312 -9.484375 31.695312 -15.117188 38.5 -20.796875 C 39.570312 -21.660156 40.429688 -22.71875 41.078125 -23.96875 C 41.972656 -25.6875 42.867188 -27.40625 43.765625 -29.125 C 47.085938 -35.507812 50.359375 -41.914062 53.578125 -48.34375 C 56.804688 -54.769531 59.851562 -61.273438 62.71875 -67.859375 C 65.550781 -74.421875 67.007812 -79.328125 67.09375 -82.578125 C 67.1875 -85.828125 65.6875 -87.546875 62.59375 -87.734375 C 59.5 -87.921875 54.617188 -86.6875 47.953125 -84.03125 C 41.429688 -81.40625 35.046875 -78.484375 28.796875 -75.265625 C 22.546875 -72.046875 16.382812 -68.609375 10.3125 -64.953125 C 8.050781 -63.617188 5.253906 -61.851562 1.921875 -59.65625 C -1.410156 -57.46875 -4.695312 -55.109375 -7.9375 -52.578125 C -11.175781 -50.046875 -13.851562 -47.566406 -15.96875 -45.140625 C -17.507812 -43.304688 -17.894531 -42.054688 -17.125 -41.390625 C -16.351562 -40.734375 -14.804688 -40.351562 -12.484375 -40.25 C -11.367188 -40.21875 -9.46875 -40.207031 -6.78125 -40.21875 C -4.09375 -40.238281 -1.097656 -40.378906 2.203125 -40.640625 C 4.054688 -40.773438 5.863281 -40.910156 7.625 -41.046875 C 10.28125 -41.296875 12.550781 -41.460938 14.4375 -41.546875 C 16.332031 -41.640625 17.457031 -41.53125 17.8125 -41.21875 C 17.925781 -40.882812 16.609375 -40.515625 13.859375 -40.109375 C 11.117188 -39.703125 7.738281 -39.328125 3.71875 -38.984375 C -0.300781 -38.640625 -4.203125 -38.429688 -7.984375 -38.359375 C -11.765625 -38.296875 -14.617188 -38.441406 -16.546875 -38.796875 C -19.953125 -39.515625 -21.503906 -40.828125 -21.203125 -42.734375 C -20.898438 -44.648438 -19.265625 -46.960938 -16.296875 -49.671875 C -13.328125 -52.378906 -9.546875 -55.253906 -4.953125 -58.296875 C -0.359375 -61.347656 4.566406 -64.390625 9.828125 -67.421875 C 15.085938 -70.460938 20.175781 -73.28125 25.09375 -75.875 C 30.019531 -78.476562 34.265625 -80.640625 37.828125 -82.359375 C 41.398438 -84.078125 43.8125 -85.1875 45.0625 -85.6875 C 50.175781 -87.757812 54.675781 -89.160156 58.5625 -89.890625 C 62.445312 -90.628906 65.488281 -90.4375 67.6875 -89.3125 C 69.882812 -88.1875 70.992188 -85.90625 71.015625 -82.46875 C 71.035156 -79.03125 69.738281 -74.175781 67.125 -67.90625 C 65.007812 -62.925781 62.757812 -57.992188 60.375 -53.109375 C 58 -48.234375 55.578125 -43.375 53.109375 -38.53125 C 52.171875 -36.675781 51.207031 -34.757812 50.21875 -32.78125 C 49.664062 -31.707031 49.066406 -30.566406 48.421875 -29.359375 C 49.148438 -29.535156 49.738281 -29.765625 50.1875 -30.046875 C 50.632812 -30.328125 51.035156 -30.613281 51.390625 -30.90625 C 51.566406 -31.039062 51.757812 -31.171875 51.96875 -31.296875 C 60.5625 -37.578125 69.945312 -43.90625 80.125 -50.28125 C 90.300781 -56.664062 101 -62.613281 112.21875 -68.125 C 123.4375 -73.644531 134.910156 -78.226562 146.640625 -81.875 C 158.367188 -85.53125 170.078125 -87.785156 181.765625 -88.640625 C 193.460938 -89.503906 204.875 -88.484375 216 -85.578125 C 216.125 -85.535156 216.25 -85.425781 216.375 -85.25 C 216.5 -85.070312 216.5625 -84.898438 216.5625 -84.734375 C 216.5625 -84.472656 216.46875 -84.269531 216.28125 -84.125 C 216.09375 -83.976562 215.84375 -83.90625 215.53125 -83.90625 C 215.320312 -83.84375 215.085938 -83.863281 214.828125 -83.96875 C 205.554688 -86.363281 195.941406 -87.285156 185.984375 -86.734375 C 176.035156 -86.179688 165.945312 -84.503906 155.71875 -81.703125 C 145.5 -78.910156 135.375 -75.320312 125.34375 -70.9375 C 115.3125 -66.550781 105.597656 -61.71875 96.203125 -56.4375 C 86.816406 -51.15625 77.988281 -45.738281 69.71875 -40.1875 C 61.445312 -34.644531 53.957031 -29.316406 47.25 -24.203125 C 47.21875 -24.160156 47.203125 -24.140625 47.203125 -24.140625 C 46.671875 -23.804688 46.171875 -23.425781 45.703125 -23 C 45.234375 -22.570312 45.019531 -22.207031 45.0625 -21.90625 C 45.101562 -21.601562 45.640625 -21.46875 46.671875 -21.5 C 46.984375 -21.5 47.285156 -21.5 47.578125 -21.5 C 49.472656 -21.675781 51.457031 -21.726562 53.53125 -21.65625 C 55.613281 -21.59375 57.515625 -21.238281 59.234375 -20.59375 C 61.734375 -19.5625 62.984375 -17.71875 62.984375 -15.0625 C 62.953125 -13.8125 62.796875 -12.585938 62.515625 -11.390625 C 62.085938 -9.398438 61.640625 -7.421875 61.171875 -5.453125 C 60.703125 -3.304688 60.234375 -1.132812 59.765625 1.0625 C 59.203125 3.632812 59.289062 6.210938 60.03125 8.796875 C 60.75 11.015625 61.878906 12.738281 63.421875 13.96875 C 64.972656 15.207031 66.738281 15.851562 68.71875 15.90625 C 70.695312 15.96875 72.675781 15.351562 74.65625 14.0625 C 76.113281 13.082031 77.289062 11.820312 78.1875 10.28125 C 78.363281 9.925781 78.539062 9.578125 78.71875 9.234375 C 78.832031 8.898438 78.976562 8.578125 79.15625 8.265625 C 79.507812 7.710938 79.910156 7.335938 80.359375 7.140625 C 80.804688 6.953125 81.195312 6.984375 81.53125 7.234375 Z M 34.046875 -10.8125 C 34.085938 -10.882812 34.15625 -10.992188 34.25 -11.140625 C 34.40625 -11.429688 34.601562 -11.789062 34.84375 -12.21875 C 35.09375 -12.644531 35.28125 -13.050781 35.40625 -13.4375 C 35.53125 -13.832031 35.539062 -14.070312 35.4375 -14.15625 C 35.332031 -14.25 35.015625 -14.082031 34.484375 -13.65625 C 25.734375 -6.78125 18.851562 0.941406 13.84375 9.515625 C 8.832031 18.097656 5.078125 27.9375 2.578125 39.03125 C 2.359375 40 2.335938 40.535156 2.515625 40.640625 C 2.691406 40.753906 2.972656 40.609375 3.359375 40.203125 C 3.753906 39.804688 4.132812 39.335938 4.5 38.796875 C 4.863281 38.265625 5.128906 37.890625 5.296875 37.671875 C 10.421875 29.765625 15.382812 21.78125 20.1875 13.71875 C 24.988281 5.664062 29.609375 -2.507812 34.046875 -10.8125 Z M 34.046875 -10.8125 "/></g></g></g><g fill="#000000" fill-opacity="1"><g transform="translate(394.904751, 479.020982)"><g><path d="M 14.0625 -17.984375 C 13.882812 -16.640625 13.25 -15.757812 12.15625 -15.34375 C 11.0625 -14.9375 10.703125 -15.472656 11.078125 -16.953125 C 11.460938 -18.441406 10.796875 -18.820312 9.078125 -18.09375 C 7.359375 -17.363281 5.941406 -16.441406 4.828125 -15.328125 C 3.109375 -13.566406 1.585938 -11.671875 0.265625 -9.640625 C 0.128906 -9.460938 0.0195312 -9.316406 -0.0625 -9.203125 C -0.445312 -8.628906 -0.835938 -8.09375 -1.234375 -7.59375 C -1.484375 -7.238281 -1.78125 -7.015625 -2.125 -6.921875 C -2.46875 -6.835938 -2.816406 -6.828125 -3.171875 -6.890625 C -3.492188 -6.921875 -3.742188 -7.046875 -3.921875 -7.265625 C -4.097656 -7.484375 -4.117188 -7.738281 -3.984375 -8.03125 C -3.765625 -8.550781 -3.507812 -9.085938 -3.21875 -9.640625 C -1.46875 -12.898438 0.316406 -16.171875 2.140625 -19.453125 C 2.179688 -19.492188 2.203125 -19.535156 2.203125 -19.578125 C 2.453125 -20.078125 2.753906 -20.546875 3.109375 -20.984375 C 3.492188 -21.410156 3.941406 -21.582031 4.453125 -21.5 C 4.960938 -21.425781 5.304688 -21.125 5.484375 -20.59375 C 5.691406 -19.914062 5.875 -19.53125 6.03125 -19.4375 C 6.1875 -19.351562 6.539062 -19.414062 7.09375 -19.625 C 8.257812 -20.0625 9.398438 -20.363281 10.515625 -20.53125 C 11.628906 -20.707031 12.539062 -20.664062 13.25 -20.40625 C 13.96875 -20.144531 14.238281 -19.335938 14.0625 -17.984375 Z M 14.0625 -17.984375 "/></g></g></g><g fill="#000000" fill-opacity="1"><g transform="translate(409.550327, 479.020982)"><g><path d="M 0.734375 -5.1875 C -1.117188 -5.1875 -2.046875 -6.15625 -2.046875 -8.09375 C -2.046875 -10.445312 -0.515625 -14.613281 2.546875 -20.59375 C 2.660156 -20.851562 2.875 -20.984375 3.1875 -20.984375 C 4.425781 -20.984375 5.046875 -20.492188 5.046875 -19.515625 C 5.046875 -19.160156 4.9375 -18.726562 4.71875 -18.21875 C 4.632812 -18.082031 3.609375 -15.503906 1.640625 -10.484375 C 1.328125 -9.671875 1.171875 -9.066406 1.171875 -8.671875 C 1.171875 -8.242188 1.367188 -8.03125 1.765625 -8.03125 C 3.179688 -8.03125 6.921875 -11.570312 12.984375 -18.65625 C 13.765625 -19.613281 14.535156 -20.09375 15.296875 -20.09375 C 16.410156 -20.09375 16.96875 -19.6875 16.96875 -18.875 C 16.96875 -18.5625 16.625 -17.378906 15.9375 -15.328125 C 15 -12.535156 14.53125 -10.921875 14.53125 -10.484375 C 14.53125 -9.835938 14.742188 -9.515625 15.171875 -9.515625 C 16.242188 -9.515625 19.378906 -11.429688 24.578125 -15.265625 C 24.867188 -15.515625 25.125 -15.640625 25.34375 -15.640625 C 25.832031 -15.640625 26.078125 -15.234375 26.078125 -14.421875 C 26.078125 -14.203125 26.007812 -14.023438 25.875 -13.890625 C 23.113281 -11.523438 20.769531 -9.726562 18.84375 -8.5 C 17.082031 -7.363281 15.519531 -6.796875 14.15625 -6.796875 L 13.734375 -6.796875 C 11.722656 -7.222656 10.71875 -8.796875 10.71875 -11.515625 C 8.570312 -9.617188 6.789062 -8.085938 5.375 -6.921875 C 3.957031 -5.765625 2.410156 -5.1875 0.734375 -5.1875 Z M 0.734375 -5.1875 "/></g></g></g><g fill="#000000" fill-opacity="1"><g transform="translate(433.627653, 479.020982)"><g><path d="M 23.328125 -15.375 C 22.890625 -15.207031 22.4375 -15.0625 21.96875 -14.9375 C 21.851562 -14.882812 21.75 -14.835938 21.65625 -14.796875 C 21.1875 -14.617188 20.71875 -14.453125 20.25 -14.296875 C 18.914062 -13.867188 17.554688 -13.410156 16.171875 -12.921875 C 15.140625 -12.628906 14.328125 -11.984375 13.734375 -10.984375 C 12.785156 -9.441406 11.59375 -8.238281 10.15625 -7.375 C 8.71875 -6.519531 7.253906 -5.910156 5.765625 -5.546875 C 4.285156 -5.191406 2.972656 -4.96875 1.828125 -4.875 C 0.691406 -4.789062 -0.0390625 -4.769531 -0.375 -4.8125 C -0.414062 -4.8125 -0.46875 -4.8125 -0.53125 -4.8125 C -1 -4.507812 -1.46875 -3.925781 -1.9375 -3.0625 C -2.40625 -2.207031 -2.816406 -1.441406 -3.171875 -0.765625 C -3.242188 -0.585938 -3.300781 -0.429688 -3.34375 -0.296875 C -5.269531 3.578125 -7.179688 7.445312 -9.078125 11.3125 C -10.148438 13.457031 -11.226562 15.601562 -12.3125 17.75 C -12.65625 18.507812 -13.0625 19.242188 -13.53125 19.953125 C -13.96875 20.492188 -14.503906 20.601562 -15.140625 20.28125 C -15.578125 19.96875 -15.6875 19.535156 -15.46875 18.984375 C -15.25 18.421875 -15.015625 17.851562 -14.765625 17.28125 C -11.410156 9.332031 -7.847656 1.472656 -4.078125 -6.296875 C -2.898438 -8.703125 -1.796875 -11.15625 -0.765625 -13.65625 C -0.296875 -14.800781 0.191406 -15.984375 0.703125 -17.203125 C 0.742188 -17.316406 0.8125 -17.441406 0.90625 -17.578125 C 1.164062 -18.222656 1.46875 -18.847656 1.8125 -19.453125 C 1.96875 -19.671875 2.257812 -19.804688 2.6875 -19.859375 C 3.125 -19.921875 3.5 -19.863281 3.8125 -19.6875 C 4.195312 -19.4375 4.390625 -19.054688 4.390625 -18.546875 C 4.390625 -18.296875 4.34375 -18.03125 4.25 -17.75 C 4.164062 -17.539062 4.113281 -17.328125 4.09375 -17.109375 C 4.082031 -16.890625 4.15625 -16.675781 4.3125 -16.46875 C 4.625 -16.425781 4.894531 -16.46875 5.125 -16.59375 C 5.363281 -16.71875 5.585938 -16.867188 5.796875 -17.046875 C 6.015625 -17.222656 6.269531 -17.351562 6.5625 -17.4375 C 6.738281 -17.53125 6.914062 -17.617188 7.09375 -17.703125 C 8.03125 -18.128906 8.957031 -18.5 9.875 -18.8125 C 11.0625 -19.175781 12.242188 -19.085938 13.421875 -18.546875 C 13.929688 -18.234375 14.3125 -17.851562 14.5625 -17.40625 C 14.8125 -16.957031 15.003906 -16.476562 15.140625 -15.96875 C 15.285156 -15.570312 15.644531 -15.363281 16.21875 -15.34375 C 16.789062 -15.332031 17.429688 -15.410156 18.140625 -15.578125 C 18.859375 -15.742188 19.507812 -15.910156 20.09375 -16.078125 C 20.582031 -16.222656 20.9375 -16.3125 21.15625 -16.34375 C 21.738281 -16.476562 22.332031 -16.519531 22.9375 -16.46875 C 23.113281 -16.46875 23.273438 -16.4375 23.421875 -16.375 C 23.566406 -16.320312 23.640625 -16.164062 23.640625 -15.90625 C 23.640625 -15.8125 23.609375 -15.707031 23.546875 -15.59375 C 23.492188 -15.488281 23.421875 -15.414062 23.328125 -15.375 Z M 11.015625 -13.453125 C 11.410156 -13.703125 11.648438 -14.117188 11.734375 -14.703125 C 11.816406 -15.296875 11.753906 -15.863281 11.546875 -16.40625 C 11.441406 -16.582031 11.304688 -16.703125 11.140625 -16.765625 C 10.984375 -16.835938 10.816406 -16.875 10.640625 -16.875 C 10.285156 -16.8125 9.941406 -16.703125 9.609375 -16.546875 C 5.992188 -14.734375 3.070312 -12.15625 0.84375 -8.8125 C 0.414062 -8.03125 0.46875 -7.679688 1 -7.765625 C 1.539062 -7.859375 2.347656 -8.191406 3.421875 -8.765625 C 4.503906 -9.347656 5.617188 -10.015625 6.765625 -10.765625 C 7.921875 -11.515625 8.910156 -12.15625 9.734375 -12.6875 C 10.472656 -13.15625 10.898438 -13.410156 11.015625 -13.453125 Z M 11.015625 -13.453125 "/></g></g></g><g fill="#000000" fill-opacity="1"><g transform="translate(455.215237, 479.020982)"><g><path d="M 21.25 -14.921875 C 21.707031 -14.660156 21.742188 -14.023438 21.359375 -13.015625 C 20.796875 -12.265625 20.191406 -11.566406 19.546875 -10.921875 C 18.898438 -10.285156 18.195312 -9.710938 17.4375 -9.203125 C 17.375 -9.203125 17.34375 -9.179688 17.34375 -9.140625 C 16.832031 -8.785156 16.296875 -8.484375 15.734375 -8.234375 C 11.066406 -6.554688 8.679688 -7.539062 8.578125 -11.1875 C 6.691406 -9.550781 5.425781 -8.546875 4.78125 -8.171875 C 3.238281 -7.253906 1.566406 -6.84375 -0.234375 -6.9375 C -1.566406 -7.019531 -2.46875 -7.425781 -2.9375 -8.15625 C -3.414062 -8.894531 -3.375 -9.890625 -2.8125 -11.140625 C -1.957031 -13.109375 -0.738281 -14.863281 0.84375 -16.40625 C 2.707031 -18.125 4.769531 -19.5 7.03125 -20.53125 C 8.238281 -21.144531 9.507812 -21.378906 10.84375 -21.234375 C 12.164062 -21.160156 12.96875 -20.410156 13.25 -18.984375 C 13.363281 -18.554688 13.253906 -18.175781 12.921875 -17.84375 C 12.492188 -17.445312 11.992188 -17.359375 11.421875 -17.578125 C 11.390625 -17.578125 11.335938 -17.585938 11.265625 -17.609375 C 11.191406 -17.628906 11.140625 -17.660156 11.109375 -17.703125 C 10.535156 -18.484375 9.960938 -18.804688 9.390625 -18.671875 C 8.816406 -18.546875 8.207031 -18.289062 7.5625 -17.90625 C 4.550781 -16.144531 2.3125 -13.691406 0.84375 -10.546875 C 0.769531 -10.410156 0.722656 -10.257812 0.703125 -10.09375 C 0.679688 -9.925781 0.726562 -9.796875 0.84375 -9.703125 C 1.195312 -9.578125 1.585938 -9.597656 2.015625 -9.765625 C 2.453125 -9.929688 2.882812 -10.175781 3.3125 -10.5 C 3.738281 -10.820312 4.097656 -11.09375 4.390625 -11.3125 C 4.429688 -11.363281 4.453125 -11.390625 4.453125 -11.390625 C 5.878906 -12.585938 7.273438 -13.8125 8.640625 -15.0625 C 9.242188 -15.707031 10 -16.066406 10.90625 -16.140625 C 12.1875 -16.140625 12.722656 -15.566406 12.515625 -14.421875 C 12.390625 -13.984375 12.257812 -13.550781 12.125 -13.125 C 11.625 -11.269531 11.609375 -10.179688 12.078125 -9.859375 C 12.546875 -9.535156 13.257812 -9.535156 14.21875 -9.859375 C 15.1875 -10.179688 16.15625 -10.796875 17.125 -11.703125 C 18.09375 -12.609375 18.90625 -13.4375 19.5625 -14.1875 C 20.226562 -14.945312 20.789062 -15.191406 21.25 -14.921875 Z M 21.25 -14.921875 "/></g></g></g><g fill="#000000" fill-opacity="1"><g transform="translate(39.284599, 481.337347)"><g><path d="M 10.5625 0 L 1.875 0 L 1.875 -2.59375 L 4.8125 -2.59375 L 4.8125 -15.59375 L 1.875 -15.59375 L 1.875 -18.203125 L 10.5625 -18.203125 L 10.5625 -15.59375 L 7.625 -15.59375 L 7.625 -2.59375 L 10.5625 -2.59375 Z M 10.5625 0 "/></g></g></g><g fill="#000000" fill-opacity="1"><g transform="translate(51.708876, 481.337347)"><g/></g></g><g fill="#000000" fill-opacity="1"><g transform="translate(58.9867, 481.337347)"><g><path d="M 15.265625 -18.203125 L 18.0625 -18.203125 L 18.0625 0 L 15.5 0 L 4.90625 -13.890625 C 5.007812 -12.828125 5.109375 -11.769531 5.203125 -10.71875 C 5.304688 -9.675781 5.359375 -8.625 5.359375 -7.5625 L 5.359375 0 L 2.546875 0 L 2.546875 -18.203125 L 5.0625 -18.203125 L 15.65625 -4.03125 C 15.5 -5.289062 15.394531 -6.65625 15.34375 -8.125 C 15.289062 -9.59375 15.265625 -10.957031 15.265625 -12.21875 Z M 15.265625 -18.203125 "/></g></g></g><g fill="#000000" fill-opacity="1"><g transform="translate(79.598527, 481.337347)"><g/></g></g><g fill="#000000" fill-opacity="1"><g transform="translate(86.876351, 481.337347)"><g><path d="M 6 0 L 6 -15.5 L 0.90625 -15.5 L 0.90625 -18.203125 L 14.0625 -18.203125 L 14.0625 -15.5 L 8.8125 -15.5 L 8.8125 0 Z M 6 0 "/></g></g></g><g fill="#000000" fill-opacity="1"><g transform="translate(101.847866, 481.337347)"><g/></g></g><g fill="#000000" fill-opacity="1"><g transform="translate(109.12569, 481.337347)"><g><path d="M 2.546875 -18.203125 L 14.015625 -18.203125 L 14.015625 -15.5 L 5.359375 -15.5 L 5.359375 -10.6875 L 12.578125 -10.6875 L 12.578125 -7.984375 L 5.359375 -7.984375 L 5.359375 -2.703125 L 14.015625 -2.703125 L 14.015625 0 L 2.546875 0 Z M 2.546875 -18.203125 "/></g></g></g><g fill="#000000" fill-opacity="1"><g transform="translate(125.08491, 481.337347)"><g/></g></g><g fill="#000000" fill-opacity="1"><g transform="translate(132.362734, 481.337347)"><g><path d="M 16.046875 -12.40625 C 16.046875 -11.3125 15.71875 -10.296875 15.0625 -9.359375 C 14.414062 -8.421875 13.570312 -7.726562 12.53125 -7.28125 L 16.765625 0.03125 L 13.359375 0 L 9.515625 -6.84375 L 5.359375 -6.84375 L 5.359375 0 L 2.546875 0 L 2.546875 -18.203125 L 10.296875 -18.203125 C 11.242188 -18.203125 12.15625 -17.96875 13.03125 -17.5 C 13.914062 -17.03125 14.640625 -16.363281 15.203125 -15.5 C 15.765625 -14.632812 16.046875 -13.601562 16.046875 -12.40625 Z M 9.828125 -15.5 L 5.359375 -15.5 L 5.359375 -9.546875 L 10.5625 -9.546875 C 11.382812 -9.546875 12.023438 -9.835938 12.484375 -10.421875 C 12.953125 -11.015625 13.1875 -11.679688 13.1875 -12.421875 C 13.1875 -13.378906 12.851562 -14.128906 12.1875 -14.671875 C 11.53125 -15.222656 10.742188 -15.5 9.828125 -15.5 Z M 9.828125 -15.5 "/></g></g></g><g fill="#000000" fill-opacity="1"><g transform="translate(150.427324, 481.337347)"><g/></g></g><g fill="#000000" fill-opacity="1"><g transform="translate(157.705148, 481.337347)"><g><path d="M 10.5625 0 L 1.875 0 L 1.875 -2.59375 L 4.8125 -2.59375 L 4.8125 -15.59375 L 1.875 -15.59375 L 1.875 -18.203125 L 10.5625 -18.203125 L 10.5625 -15.59375 L 7.625 -15.59375 L 7.625 -2.59375 L 10.5625 -2.59375 Z M 10.5625 0 "/></g></g></g><g fill="#000000" fill-opacity="1"><g transform="translate(170.129425, 481.337347)"><g/></g></g><g fill="#000000" fill-opacity="1"><g transform="translate(177.407249, 481.337347)"><g><path d="M 19.078125 -9.09375 C 19.078125 -7.78125 18.859375 -6.554688 18.421875 -5.421875 C 17.992188 -4.285156 17.375 -3.289062 16.5625 -2.4375 C 15.757812 -1.59375 14.816406 -0.929688 13.734375 -0.453125 C 12.648438 0.0234375 11.460938 0.265625 10.171875 0.265625 C 8.867188 0.265625 7.671875 0.0234375 6.578125 -0.453125 C 5.484375 -0.929688 4.535156 -1.59375 3.734375 -2.4375 C 2.941406 -3.289062 2.328125 -4.285156 1.890625 -5.421875 C 1.460938 -6.554688 1.25 -7.78125 1.25 -9.09375 C 1.25 -10.414062 1.460938 -11.644531 1.890625 -12.78125 C 2.328125 -13.914062 2.941406 -14.90625 3.734375 -15.75 C 4.535156 -16.601562 5.484375 -17.265625 6.578125 -17.734375 C 7.671875 -18.210938 8.867188 -18.453125 10.171875 -18.453125 C 11.460938 -18.453125 12.648438 -18.210938 13.734375 -17.734375 C 14.816406 -17.265625 15.757812 -16.601562 16.5625 -15.75 C 17.375 -14.90625 17.992188 -13.914062 18.421875 -12.78125 C 18.859375 -11.644531 19.078125 -10.414062 19.078125 -9.09375 Z M 16.21875 -9.09375 C 16.21875 -10.363281 15.957031 -11.492188 15.4375 -12.484375 C 14.914062 -13.484375 14.203125 -14.273438 13.296875 -14.859375 C 12.390625 -15.441406 11.347656 -15.734375 10.171875 -15.734375 C 8.972656 -15.734375 7.914062 -15.441406 7 -14.859375 C 6.09375 -14.273438 5.382812 -13.484375 4.875 -12.484375 C 4.363281 -11.492188 4.109375 -10.363281 4.109375 -9.09375 C 4.109375 -7.832031 4.363281 -6.703125 4.875 -5.703125 C 5.382812 -4.710938 6.09375 -3.925781 7 -3.34375 C 7.914062 -2.757812 8.972656 -2.46875 10.171875 -2.46875 C 11.347656 -2.46875 12.390625 -2.757812 13.296875 -3.34375 C 14.203125 -3.925781 14.914062 -4.71875 15.4375 -5.71875 C 15.957031 -6.726562 16.21875 -7.851562 16.21875 -9.09375 Z M 16.21875 -9.09375 "/></g></g></g><g fill="#000000" fill-opacity="1"><g transform="translate(197.733157, 481.337347)"><g/></g></g><g fill="#000000" fill-opacity="1"><g transform="translate(205.010981, 481.337347)"><g><path d="M 16.046875 -12.40625 C 16.046875 -11.3125 15.71875 -10.296875 15.0625 -9.359375 C 14.414062 -8.421875 13.570312 -7.726562 12.53125 -7.28125 L 16.765625 0.03125 L 13.359375 0 L 9.515625 -6.84375 L 5.359375 -6.84375 L 5.359375 0 L 2.546875 0 L 2.546875 -18.203125 L 10.296875 -18.203125 C 11.242188 -18.203125 12.15625 -17.96875 13.03125 -17.5 C 13.914062 -17.03125 14.640625 -16.363281 15.203125 -15.5 C 15.765625 -14.632812 16.046875 -13.601562 16.046875 -12.40625 Z M 9.828125 -15.5 L 5.359375 -15.5 L 5.359375 -9.546875 L 10.5625 -9.546875 C 11.382812 -9.546875 12.023438 -9.835938 12.484375 -10.421875 C 12.953125 -11.015625 13.1875 -11.679688 13.1875 -12.421875 C 13.1875 -13.378906 12.851562 -14.128906 12.1875 -14.671875 C 11.53125 -15.222656 10.742188 -15.5 9.828125 -15.5 Z M 9.828125 -15.5 "/></g></g></g><g fill="#000000" fill-opacity="1"><g transform="translate(223.075571, 481.337347)"><g/></g></g><g fill="#000000" fill-opacity="1"><g transform="translate(230.353395, 481.337347)"><g><path d="M 3.21875 -5.484375 C 3.9375 -4.460938 4.679688 -3.671875 5.453125 -3.109375 C 6.222656 -2.546875 7.222656 -2.265625 8.453125 -2.265625 C 9.035156 -2.265625 9.597656 -2.359375 10.140625 -2.546875 C 10.679688 -2.734375 11.125 -3.007812 11.46875 -3.375 C 11.8125 -3.738281 11.984375 -4.175781 11.984375 -4.6875 C 11.984375 -5.550781 11.613281 -6.222656 10.875 -6.703125 C 10.144531 -7.191406 9.113281 -7.566406 7.78125 -7.828125 C 6.070312 -8.171875 4.710938 -8.769531 3.703125 -9.625 C 2.703125 -10.488281 2.203125 -11.734375 2.203125 -13.359375 C 2.203125 -14.398438 2.492188 -15.300781 3.078125 -16.0625 C 3.660156 -16.832031 4.425781 -17.421875 5.375 -17.828125 C 6.332031 -18.242188 7.363281 -18.453125 8.46875 -18.453125 C 9.914062 -18.453125 11.15625 -18.175781 12.1875 -17.625 C 13.226562 -17.070312 14.046875 -16.285156 14.640625 -15.265625 L 12.65625 -13.3125 C 12.1875 -14.09375 11.597656 -14.722656 10.890625 -15.203125 C 10.179688 -15.691406 9.347656 -15.9375 8.390625 -15.9375 C 7.441406 -15.9375 6.640625 -15.710938 5.984375 -15.265625 C 5.335938 -14.828125 5.015625 -14.21875 5.015625 -13.4375 C 5.015625 -12.550781 5.359375 -11.90625 6.046875 -11.5 C 6.734375 -11.09375 7.640625 -10.769531 8.765625 -10.53125 C 9.785156 -10.320312 10.753906 -10 11.671875 -9.5625 C 12.585938 -9.132812 13.335938 -8.578125 13.921875 -7.890625 C 14.503906 -7.203125 14.796875 -6.375 14.796875 -5.40625 C 14.796875 -3.675781 14.207031 -2.296875 13.03125 -1.265625 C 11.851562 -0.242188 10.226562 0.265625 8.15625 0.265625 C 6.757812 0.265625 5.484375 -0.0078125 4.328125 -0.5625 C 3.171875 -1.125 2.160156 -2.03125 1.296875 -3.28125 Z M 3.21875 -5.484375 "/></g></g></g><g fill="#000000" fill-opacity="1"><g transform="translate(246.57756, 481.337347)"><g/></g></g><g fill="#000000" fill-opacity="1"><g transform="translate(253.855384, 481.337347)"><g/></g></g><g fill="#000000" fill-opacity="1"><g transform="translate(261.133208, 481.337347)"><g/></g></g><g fill="#000000" fill-opacity="1"><g transform="translate(268.411032, 481.337347)"><g/></g></g><g fill="#000000" fill-opacity="1"><g transform="translate(275.698649, 481.337347)"><g><path d="M 10.140625 -18.203125 C 11.910156 -18.203125 13.242188 -17.8125 14.140625 -17.03125 C 15.046875 -16.25 15.5 -15.113281 15.5 -13.625 C 15.5 -12.8125 15.300781 -12.082031 14.90625 -11.4375 C 14.519531 -10.800781 13.945312 -10.300781 13.1875 -9.9375 C 13.757812 -9.738281 14.289062 -9.441406 14.78125 -9.046875 C 15.269531 -8.660156 15.671875 -8.164062 15.984375 -7.5625 C 16.296875 -6.957031 16.453125 -6.222656 16.453125 -5.359375 C 16.453125 -4.296875 16.269531 -3.414062 15.90625 -2.71875 C 15.539062 -2.03125 15.0625 -1.488281 14.46875 -1.09375 C 13.882812 -0.695312 13.238281 -0.414062 12.53125 -0.25 C 11.820312 -0.0820312 11.113281 0 10.40625 0 L 2.546875 0 L 2.546875 -18.203125 Z M 9.671875 -15.5 L 5.359375 -15.5 L 5.359375 -10.65625 L 9.984375 -10.65625 C 10.691406 -10.675781 11.316406 -10.894531 11.859375 -11.3125 C 12.410156 -11.726562 12.6875 -12.316406 12.6875 -13.078125 C 12.6875 -13.941406 12.394531 -14.5625 11.8125 -14.9375 C 11.238281 -15.3125 10.523438 -15.5 9.671875 -15.5 Z M 10.109375 -7.953125 L 5.359375 -7.953125 L 5.359375 -2.703125 L 10.25 -2.703125 C 11.226562 -2.703125 12.03125 -2.921875 12.65625 -3.359375 C 13.28125 -3.804688 13.59375 -4.488281 13.59375 -5.40625 C 13.59375 -6.0625 13.410156 -6.570312 13.046875 -6.9375 C 12.679688 -7.300781 12.234375 -7.5625 11.703125 -7.71875 C 11.179688 -7.875 10.648438 -7.953125 10.109375 -7.953125 Z M 10.109375 -7.953125 "/></g></g></g><g fill="#000000" fill-opacity="1"><g transform="translate(293.39935, 481.337347)"><g/></g></g><g fill="#000000" fill-opacity="1"><g transform="translate(300.677175, 481.337347)"><g><path d="M 16.90625 -18.203125 L 10.25 -8.109375 L 10.25 0 L 7.4375 0 L 7.4375 -8.0625 L 0.265625 -18.203125 L 3.640625 -18.203125 L 8.890625 -10.65625 L 13.671875 -18.203125 Z M 16.90625 -18.203125 "/></g></g></g><g fill="#000000" fill-opacity="1"><g transform="translate(317.839271, 481.337347)"><g/></g></g><path stroke-linecap="butt" transform="matrix(0.749999, -0.00145064, 0.00145064, 0.749999, 277.905867, 486.237355)" fill="none" stroke-linejoin="miter" d="M -0.00142598 1.001235 L 258.509476 1.001242 " stroke="#000000" stroke-width="2" stroke-opacity="1" stroke-miterlimit="4"/></svg>